<?xml version="1.0" standalone="no"?>
<!DOCTYPE svg PUBLIC "-//W3C//DTD SVG 20010904//EN"
 "http://www.w3.org/TR/2001/REC-SVG-20010904/DTD/svg10.dtd">
<svg version="1.0" xmlns="http://www.w3.org/2000/svg"
 width="734.000000pt" height="707.000000pt" viewBox="0 0 734.000000 707.000000"
 preserveAspectRatio="xMidYMid meet">

<g transform="translate(0.000000,707.000000) scale(0.100000,-0.100000)"
fill="#000000" stroke="none">
<path d="M1350 6949 c-190 -22 -319 -60 -499 -147 -368 -179 -648 -541 -745
-964 -36 -159 -37 -237 -34 -2388 l3 -2105 23 -105 c59 -262 178 -489 354
-675 241 -255 504 -392 858 -447 69 -10 529 -13 2375 -13 2150 0 2296 1 2385
18 308 57 543 175 752 376 121 115 206 227 283 369 98 181 144 356 165 621 14
189 14 4044 -1 4143 -38 259 -81 400 -172 566 -78 141 -138 224 -247 333 -204
207 -474 349 -770 406 -90 17 -215 18 -2375 19 -1254 1 -2314 -2 -2355 -7z
m2583 -865 c26 -13 428 -410 1569 -1549 64 -63 73 -118 30 -186 -40 -61 -214
-227 -259 -245 -72 -31 -73 -30 -920 816 -482 482 -781 788 -790 809 -24 56
-10 83 100 195 114 116 189 176 218 176 11 0 34 -7 52 -16z m192 -1417 l765
-759 -99 -101 c-54 -56 -128 -138 -163 -182 -133 -165 -334 -487 -451 -720
-50 -102 -190 -426 -231 -538 -10 -26 -28 -54 -39 -62 -12 -7 -98 -32 -192
-54 -93 -23 -244 -59 -335 -81 -91 -22 -262 -62 -380 -90 -118 -28 -354 -84
-525 -125 -170 -41 -425 -102 -565 -135 -140 -34 -340 -83 -443 -111 -104 -28
-192 -48 -195 -45 -3 3 -3 7 -1 8 3 2 325 322 716 712 l710 708 59 -22 c79
-31 196 -31 274 -1 145 55 227 188 218 355 -10 179 -123 307 -296 335 -219 35
-398 -111 -410 -335 -4 -78 13 -167 39 -200 9 -11 -1426 -1452 -1436 -1442 -3
3 -1 17 4 31 36 95 217 815 307 1227 97 440 168 766 209 955 72 340 104 473
117 495 7 11 33 28 58 37 196 71 542 218 666 283 303 158 647 403 783 560 29
33 57 60 62 58 5 -2 353 -344 774 -761z"/>
</g>
</svg>
